<svg style="width:100%; height:100%" xmlns="http://www.w3.org/2000/svg" viewBox="0 0 750 500"><g id="freepik--background-complete--inject-5"><rect x="306.41" y="176.61" width="74.45" height="235.94" style="fill:#f5f5f5"></rect><rect x="343.63" y="176.61" width="37.22" height="235.29" style="fill:#ebebeb"></rect><rect x="314.91" y="153.44" width="26.29" height="23.16" style="fill:#f5f5f5"></rect><rect x="334.93" y="153.44" width="6.27" height="23.16" style="fill:#ebebeb"></rect><polyline points="300.21 176.61 300.21 175.26 383.04 175.26 383.04 176.61" style="fill:#e0e0e0"></polyline><rect x="321.11" y="186.71" width="6.3" height="13.29" style="fill:#fafafa"></rect><path d="M343.63,205.21c0,.14-8.33.26-18.61.26s-18.61-.12-18.61-.26S314.74,205,325,205,343.63,205.07,343.63,205.21Z" style="fill:#e0e0e0"></path><rect x="358.65" y="186.71" width="6.3" height="13.29" style="fill:#e0e0e0"></rect><path d="M381.18,205.21c0,.14-8.33.26-18.61.26s-18.61-.12-18.61-.26,8.33-.25,18.61-.25S381.18,205.07,381.18,205.21Z" style="fill:#e0e0e0"></path><rect x="358.65" y="213.09" width="6.3" height="13.29" style="fill:#e0e0e0"></rect><path d="M381.18,231.59c0,.14-8.33.26-18.61.26s-18.61-.12-18.61-.26,8.33-.25,18.61-.25S381.18,231.45,381.18,231.59Z" style="fill:#e0e0e0"></path><rect x="358.65" y="240.27" width="6.3" height="13.29" style="fill:#e0e0e0"></rect><path d="M381.18,258.77c0,.14-8.33.25-18.61.25s-18.61-.11-18.61-.25,8.33-.25,18.61-.25S381.18,258.63,381.18,258.77Z" style="fill:#e0e0e0"></path><rect x="358.65" y="267.44" width="6.3" height="13.29" style="fill:#e0e0e0"></rect><path d="M381.18,286c0,.14-8.33.25-18.61.25S344,286.09,344,286s8.33-.26,18.61-.26S381.18,285.81,381.18,286Z" style="fill:#e0e0e0"></path><rect x="358.65" y="293.84" width="6.3" height="13.29" style="fill:#e0e0e0"></rect><path d="M381.18,312.34c0,.15-8.33.26-18.61.26s-18.61-.11-18.61-.26,8.33-.25,18.61-.25S381.18,312.2,381.18,312.34Z" style="fill:#e0e0e0"></path><rect x="358.65" y="320.35" width="6.3" height="13.29" style="fill:#e0e0e0"></rect><rect x="358.65" y="347.2" width="6.3" height="13.29" style="fill:#e0e0e0"></rect><path d="M381.18,338.85c0,.14-8.33.25-18.61.25S344,339,344,338.85s8.33-.25,18.61-.25S381.18,338.71,381.18,338.85Z" style="fill:#e0e0e0"></path><rect x="321.11" y="213.49" width="6.3" height="13.29" style="fill:#fafafa"></rect><path d="M343.63,232c0,.14-8.33.25-18.61.25s-18.61-.11-18.61-.25,8.33-.26,18.61-.26S343.63,231.86,343.63,232Z" style="fill:#e0e0e0"></path><rect x="321.11" y="240.28" width="6.3" height="13.29" style="fill:#fafafa"></rect><path d="M343.63,258.78c0,.14-8.33.25-18.61.25s-18.61-.11-18.61-.25,8.33-.26,18.61-.26S343.63,258.64,343.63,258.78Z" style="fill:#e0e0e0"></path><rect x="321.11" y="267.06" width="6.3" height="13.29" style="fill:#fafafa"></rect><path d="M343.63,285.56c0,.14-8.33.26-18.61.26s-18.61-.12-18.61-.26,8.33-.25,18.61-.25S343.63,285.42,343.63,285.56Z" style="fill:#e0e0e0"></path><rect x="321.11" y="293.84" width="6.3" height="13.29" style="fill:#fafafa"></rect><path d="M343.63,312.34c0,.15-8.33.26-18.61.26s-18.61-.11-18.61-.26,8.33-.25,18.61-.25S343.63,312.2,343.63,312.34Z" style="fill:#e0e0e0"></path><rect x="321.11" y="320.63" width="6.3" height="13.29" style="fill:#fafafa"></rect><path d="M343.63,339.13c0,.14-8.33.25-18.61.25s-18.61-.11-18.61-.25,8.33-.26,18.61-.26S343.63,339,343.63,339.13Z" style="fill:#e0e0e0"></path><rect x="321.11" y="347.41" width="6.3" height="13.29" style="fill:#fafafa"></rect><rect x="418.64" y="279.36" width="101.42" height="133.76" style="fill:#ebebeb"></rect><rect x="472.5" y="279.36" width="47.55" height="133.76" style="fill:#e0e0e0"></rect><rect x="439.9" y="297.47" width="9.12" height="22.15" style="fill:#f5f5f5"></rect><rect x="439.9" y="384.18" width="9.12" height="22.15" style="fill:#f5f5f5"></rect><path d="M472.5,328.32c0,.25-12.06.45-26.93.45s-26.93-.2-26.93-.45,12.05-.45,26.93-.45S472.5,328.07,472.5,328.32Z" style="fill:#f5f5f5"></path><rect x="439.9" y="341.16" width="9.12" height="22.15" style="fill:#f5f5f5"></rect><path d="M472.5,372c0,.25-12.06.46-26.93.46s-26.93-.21-26.93-.46,12.05-.45,26.93-.45S472.5,371.76,472.5,372Z" style="fill:#f5f5f5"></path><rect x="482.6" y="297.47" width="9.12" height="22.15" style="fill:#f5f5f5"></rect><rect x="502.38" y="297.47" width="9.12" height="22.15" style="fill:#f5f5f5"></rect><rect x="482.6" y="339.51" width="9.12" height="22.15" style="fill:#f5f5f5"></rect><rect x="502.38" y="339.51" width="9.12" height="22.15" style="fill:#f5f5f5"></rect><rect x="482.6" y="381.55" width="9.12" height="22.15" style="fill:#f5f5f5"></rect><rect x="502.38" y="381.55" width="9.12" height="22.15" style="fill:#f5f5f5"></rect><rect x="411.01" y="274.71" width="112.98" height="4.82" style="fill:#e0e0e0"></rect><path d="M520.76,280c0,.25-22.67.46-50.62.46s-50.63-.21-50.63-.46,22.66-.45,50.63-.45S520.76,279.74,520.76,280Z" style="fill:#ebebeb"></path><polygon points="335.35 412.67 233.13 412.67 232.68 251.11 334.91 251.11 335.35 412.67" style="fill:#ebebeb"></polygon><rect x="283.8" y="251.11" width="51.11" height="161.56" style="fill:#e0e0e0"></rect><rect x="244.36" y="219.31" width="36.1" height="31.81" style="fill:#ebebeb"></rect><rect x="271.85" y="219.31" width="8.6" height="31.81" style="fill:#e0e0e0"></rect><rect x="227.21" y="249.26" width="110.69" height="1.86" style="fill:#e0e0e0"></rect><rect x="252.86" y="264.98" width="8.65" height="18.25" style="fill:#fff"></rect><path d="M283.8,290.39c0,.19-11.45.35-25.56.35s-25.56-.16-25.56-.35,11.44-.35,25.56-.35S283.8,290.2,283.8,290.39Z" style="fill:#e0e0e0"></path><rect x="304.42" y="264.98" width="8.65" height="18.25" style="fill:#f5f5f5"></rect><path d="M335.35,290.39c0,.19-11.44.35-25.55.35s-25.56-.16-25.56-.35,11.44-.35,25.56-.35S335.35,290.2,335.35,290.39Z" style="fill:#ebebeb"></path><rect x="304.42" y="301.21" width="8.65" height="18.24" style="fill:#f5f5f5"></rect><path d="M335.35,326.61c0,.19-11.44.35-25.55.35s-25.56-.16-25.56-.35,11.44-.35,25.56-.35S335.35,326.42,335.35,326.61Z" style="fill:#ebebeb"></path><rect x="304.42" y="338.52" width="8.65" height="18.25" style="fill:#f5f5f5"></rect><path d="M335.35,363.93c0,.19-11.44.35-25.55.35s-25.56-.16-25.56-.35,11.44-.35,25.56-.35S335.35,363.74,335.35,363.93Z" style="fill:#ebebeb"></path><rect x="304.42" y="375.84" width="8.65" height="18.25" style="fill:#f5f5f5"></rect><path d="M335.35,401.25c0,.19-11.44.34-25.55.34s-25.56-.15-25.56-.34,11.44-.35,25.56-.35S335.35,401.05,335.35,401.25Z" style="fill:#ebebeb"></path><rect x="252.86" y="301.76" width="8.65" height="18.25" style="fill:#fff"></rect><path d="M283.8,327.16c0,.2-11.45.35-25.56.35s-25.56-.15-25.56-.35,11.44-.34,25.56-.34S283.8,327,283.8,327.16Z" style="fill:#e0e0e0"></path><rect x="252.86" y="338.54" width="8.65" height="18.25" style="fill:#fff"></rect><path d="M283.8,363.94c0,.19-11.45.35-25.56.35s-25.56-.16-25.56-.35,11.44-.35,25.56-.35S283.8,363.75,283.8,363.94Z" style="fill:#e0e0e0"></path><rect x="252.86" y="375.31" width="8.65" height="18.24" style="fill:#fff"></rect><path d="M283.8,400.72c0,.19-11.45.35-25.56.35s-25.56-.16-25.56-.35,11.44-.35,25.56-.35S283.8,400.53,283.8,400.72Z" style="fill:#e0e0e0"></path><path d="M484.25,230.12a.42.42,0,0,1-.42.42.41.41,0,0,1-.41-.42.41.41,0,0,1,.41-.41A.41.41,0,0,1,484.25,230.12Z" style="fill:#e0e0e0"></path><path d="M512.19,218.29a.42.42,0,1,1-.42-.42A.42.42,0,0,1,512.19,218.29Z" style="fill:#e0e0e0"></path><path d="M468.87,210.25a.42.42,0,0,1-.84,0,.42.42,0,1,1,.84,0Z" style="fill:#e0e0e0"></path><path d="M476.77,200.56a.41.41,0,0,1-.42.41.41.41,0,0,1-.41-.41.41.41,0,0,1,.41-.42A.42.42,0,0,1,476.77,200.56Z" style="fill:#e0e0e0"></path><path d="M490.05,194.38a.42.42,0,0,1-.84,0,.42.42,0,0,1,.84,0Z" style="fill:#e0e0e0"></path><path d="M499.58,200.56a.42.42,0,0,1-.84,0,.42.42,0,1,1,.84,0Z" style="fill:#e0e0e0"></path><path d="M503.77,224.27a.41.41,0,0,1-.42.41.41.41,0,0,1-.41-.41.41.41,0,0,1,.41-.42A.42.42,0,0,1,503.77,224.27Z" style="fill:#e0e0e0"></path><path d="M475,221.83a.41.41,0,0,1-.42.41.41.41,0,0,1-.41-.41.41.41,0,0,1,.41-.42A.42.42,0,0,1,475,221.83Z" style="fill:#e0e0e0"></path><path d="M501.36,230.75a.18.18,0,0,1-.17.17.17.17,0,0,1-.17-.17.17.17,0,0,1,.17-.18A.18.18,0,0,1,501.36,230.75Z" style="fill:#e0e0e0"></path><circle cx="470.51" cy="217.98" r="0.17" style="fill:#e0e0e0"></circle><path d="M476.28,207.62a.18.18,0,0,1-.17.17.17.17,0,0,1-.17-.17.16.16,0,0,1,.17-.17A.17.17,0,0,1,476.28,207.62Z" style="fill:#e0e0e0"></path><path d="M507.26,213.16a.18.18,0,0,1-.17.17.18.18,0,0,1-.18-.17.18.18,0,0,1,.18-.18A.18.18,0,0,1,507.26,213.16Z" style="fill:#e0e0e0"></path><path d="M485.93,200.14a.18.18,0,0,1-.17.17.17.17,0,1,1,0-.34A.18.18,0,0,1,485.93,200.14Z" style="fill:#e0e0e0"></path><circle cx="505.97" cy="202.61" r="0.17" style="fill:#e0e0e0"></circle><path d="M492.49,209.25a4.59,4.59,0,0,1-.06,2.4,4.7,4.7,0,0,1-.81,2.26,6.44,6.44,0,0,1,.27-2.36A6.78,6.78,0,0,1,492.49,209.25Z" style="fill:#e0e0e0"></path><path d="M495.86,199.53a19.27,19.27,0,0,1-.93,4.44,18.53,18.53,0,0,1-1.45,4.31,19,19,0,0,1,.92-4.45A18.62,18.62,0,0,1,495.86,199.53Z" style="fill:#e0e0e0"></path><path d="M497.09,205.06a16.39,16.39,0,0,1-1.55,3.86,15.32,15.32,0,0,1-2,3.61,15.61,15.61,0,0,1,1.54-3.85A16,16,0,0,1,497.09,205.06Z" style="fill:#e0e0e0"></path><path d="M502.94,204.44a25.81,25.81,0,0,1-3,3.43,26.77,26.77,0,0,1-3.19,3.27,15.26,15.26,0,0,1,2.79-3.64A15.05,15.05,0,0,1,502.94,204.44Z" style="fill:#e0e0e0"></path><path d="M497.63,212.33c.07.13-.74.69-1.8,1.25s-2,.89-2.05.76.73-.7,1.8-1.25S497.56,212.2,497.63,212.33Z" style="fill:#e0e0e0"></path><path d="M510,207a53.92,53.92,0,0,1-5.17,2.55,54.34,54.34,0,0,1-5.21,2.46,21.25,21.25,0,0,1,5-3A21.73,21.73,0,0,1,510,207Z" style="fill:#e0e0e0"></path><path d="M503.35,213.16a8.85,8.85,0,0,1-2.88,1,8.63,8.63,0,0,1-3,.45,16.56,16.56,0,0,1,5.88-1.44Z" style="fill:#e0e0e0"></path><path d="M509.14,216.67a26.92,26.92,0,0,1-9.3-.31,74.59,74.59,0,0,1,9.3.31Z" style="fill:#e0e0e0"></path><path d="M498.22,218.29c0,.15-1,0-2.16-.36s-2-.74-2-.89a4.64,4.64,0,0,1,2.15.36C497.37,217.75,498.26,218.15,498.22,218.29Z" style="fill:#e0e0e0"></path><path d="M510.61,222.22A33.88,33.88,0,0,1,505.4,221a34.33,34.33,0,0,1-5.15-1.52,35.66,35.66,0,0,1,10.36,2.76Z" style="fill:#e0e0e0"></path><path d="M501,222.71a4.75,4.75,0,0,1-2.34-1c-1.19-.73-2-1.54-1.91-1.65a7.64,7.64,0,0,1,2.2,1.18C500.1,222,501.05,222.57,501,222.71Z" style="fill:#e0e0e0"></path><path d="M503.77,230.54A24,24,0,0,1,500.2,227a23.24,23.24,0,0,1-3.16-4,46.45,46.45,0,0,1,6.73,7.55Z" style="fill:#e0e0e0"></path><path d="M494.94,223c-.12.08-.75-.59-1.4-1.52s-1.08-1.74-1-1.83.75.59,1.41,1.51S495.07,222.88,494.94,223Z" style="fill:#e0e0e0"></path><path d="M501.19,235.63a19.8,19.8,0,0,1-2.63-4.53,20,20,0,0,1-1.86-4.89,34.53,34.53,0,0,1,2.36,4.65A35.37,35.37,0,0,1,501.19,235.63Z" style="fill:#e0e0e0"></path><path d="M494.26,230.29a13.54,13.54,0,0,1-1.26-3.64,13.89,13.89,0,0,1-.73-3.78,13.71,13.71,0,0,1,1.26,3.64A14,14,0,0,1,494.26,230.29Z" style="fill:#e0e0e0"></path><path d="M490.64,234.22a36.74,36.74,0,0,1-.1-8.89,18.17,18.17,0,0,1,.33,4.44A18.66,18.66,0,0,1,490.64,234.22Z" style="fill:#e0e0e0"></path><path d="M489.14,224.75a5.62,5.62,0,0,1,.18-2.41,5.46,5.46,0,0,1,.73-2.32,5.58,5.58,0,0,1-.19,2.42A5.52,5.52,0,0,1,489.14,224.75Z" style="fill:#e0e0e0"></path><path d="M485.77,235.43a19.75,19.75,0,0,1,.82-4.58,20.39,20.39,0,0,1,1.35-4.46,19.75,19.75,0,0,1-.82,4.58A19.18,19.18,0,0,1,485.77,235.43Z" style="fill:#e0e0e0"></path><path d="M484.65,228.5a10.67,10.67,0,0,1,1.18-3.16,10.44,10.44,0,0,1,1.68-2.92,10.44,10.44,0,0,1-1.18,3.15A10.23,10.23,0,0,1,484.65,228.5Z" style="fill:#e0e0e0"></path><path d="M484.27,223.46a48.26,48.26,0,0,1-6.14,5.52,13.9,13.9,0,0,1,2.82-3A13.45,13.45,0,0,1,484.27,223.46Z" style="fill:#e0e0e0"></path><path d="M488,218.15c.09.13-.78.88-1.94,1.68s-2.16,1.35-2.25,1.22.78-.87,1.94-1.67A6.4,6.4,0,0,1,488,218.15Z" style="fill:#e0e0e0"></path><path d="M481.82,222.4a132.61,132.61,0,0,1-9,3.74,25.61,25.61,0,0,1,9-3.74Z" style="fill:#e0e0e0"></path><path d="M484.19,218.5a11.09,11.09,0,0,1-3.49,1.5,11.29,11.29,0,0,1-3.71.79,16,16,0,0,1,3.55-1.31A16.36,16.36,0,0,1,484.19,218.5Z" style="fill:#e0e0e0"></path><path d="M482.23,216.73a29.82,29.82,0,0,1-8.08.11,15.11,15.11,0,0,1,4-.33A15.31,15.31,0,0,1,482.23,216.73Z" style="fill:#e0e0e0"></path><path d="M486.71,216c0,.14-.86.19-1.85-.06s-1.72-.71-1.66-.84.84.06,1.79.3S486.73,215.87,486.71,216Z" style="fill:#e0e0e0"></path><path d="M481.25,214.12A19.46,19.46,0,0,1,476,213a20.34,20.34,0,0,1-5-2,39,39,0,0,1,5.17,1.45A42,42,0,0,1,481.25,214.12Z" style="fill:#e0e0e0"></path><path d="M485.5,213.73a18,18,0,0,1-3.33-1.64,18.29,18.29,0,0,1-3.21-1.84,9.86,9.86,0,0,1,3.47,1.35A10,10,0,0,1,485.5,213.73Z" style="fill:#e0e0e0"></path><path d="M485.37,210.84a26.41,26.41,0,0,1-3.81-3.18,26.12,26.12,0,0,1-3.55-3.48,19.87,19.87,0,0,1,3.92,3.07A20.18,20.18,0,0,1,485.37,210.84Z" style="fill:#e0e0e0"></path><path d="M489,214.64a5.42,5.42,0,0,1-1.34-2.22,5.34,5.34,0,0,1-.66-2.5,7.62,7.62,0,0,1,1.17,2.29A7.39,7.39,0,0,1,489,214.64Z" style="fill:#e0e0e0"></path><path d="M489.53,211.88a15.93,15.93,0,0,1-1.52-3.79,15.46,15.46,0,0,1-1-4,15.24,15.24,0,0,1,1.52,3.79A14.88,14.88,0,0,1,489.53,211.88Z" style="fill:#e0e0e0"></path><path d="M490.8,208.12a19,19,0,0,1-.37-4.53,17.91,17.91,0,0,1,.18-4.53,19.48,19.48,0,0,1,.37,4.52A19.27,19.27,0,0,1,490.8,208.12Z" style="fill:#e0e0e0"></path><path d="M486.85,208.61a36.1,36.1,0,0,1-3.23-5.41,36.59,36.59,0,0,1-2.75-5.67,36.25,36.25,0,0,1,3.24,5.41A35.35,35.35,0,0,1,486.85,208.61Z" style="fill:#e0e0e0"></path><path d="M392.81,111.31c.48-3.44-4.39-6.28-8-6.57-1.74-.14-3.55.12-5.21-.45-3.57-1.25-5-5.87-8.49-7.34-2.61-1.1-5.62-.12-8.15,1.15s-5,2.88-7.85,3.06c-2.46.15-5.13-.76-7.28.44-1.61.9-2.45,2.75-3.92,3.83a9.27,9.27,0,0,1-5.13,1.39,14.43,14.43,0,0,0-5.28.87c-1.63.75-3,2.47-2.65,4.24Z" style="fill:#ebebeb"></path><path d="M433.82,243.43c.32-2.32-3-4.24-5.43-4.43a14.2,14.2,0,0,1-3.52-.31c-2.41-.84-3.38-4-5.73-4.95-1.76-.75-3.79-.09-5.5.77s-3.4,2-5.31,2.07c-1.65.1-3.46-.51-4.91.3-1.08.6-1.65,1.85-2.65,2.59a6.22,6.22,0,0,1-3.46.93,9.69,9.69,0,0,0-3.56.59,2.82,2.82,0,0,0-1.79,2.86Z" style="fill:#ebebeb"></path><path d="M509.84,154.85c.32-2.33-3-4.24-5.43-4.44a14.08,14.08,0,0,1-3.51-.31c-2.42-.84-3.38-4-5.74-4.95-1.76-.75-3.79-.08-5.5.78s-3.39,1.94-5.3,2.06c-1.66.11-3.46-.51-4.92.3-1.08.61-1.65,1.85-2.64,2.59a6.36,6.36,0,0,1-3.46.94,9.53,9.53,0,0,0-3.57.58,2.81,2.81,0,0,0-1.78,2.86Z" style="fill:#ebebeb"></path><rect x="84.73" y="431.75" width="48.65" height="12.87" style="fill:#ebebeb"></rect><path d="M112.81,458.18a1.17,1.17,0,0,1,0-.23l0-.66c0-.61,0-1.45,0-2.54,0-2.22,0-5.41-.09-9.44l.16.15-48.65.1c.11-.11-.25.24.24-.25h0v12.85l-.25-.24,34.67.11,10.24.07,2.77,0h.72l.26,0-.23,0h-.69l-2.72,0L99,458.31l-34.84.11h-.24V445.33h0c.5-.5.14-.14.26-.25l48.65.1H113v.15c0,4.06-.07,7.29-.09,9.53,0,1.07,0,1.9,0,2.5,0,.26,0,.47,0,.64A1.39,1.39,0,0,1,112.81,458.18Z" style="fill:#e0e0e0"></path><rect x="667.69" y="353.85" width="48.65" height="12.87" style="fill:#ebebeb"></rect><path d="M695.77,380.27a2.07,2.07,0,0,1,0-.23l0-.66c0-.61,0-1.45,0-2.53,0-2.23-.05-5.42-.09-9.45l.15.15-48.65.1.25-.25h0v6.53q0,3.22,0,6.33l-.24-.24,34.67.11,10.24.07,2.76,0,.73,0h.25s-.07,0-.22,0h-.7l-2.71,0-10.18.07-34.84.11h-.24v-.25q0-3.11,0-6.33v-6.53h0c.5-.49.14-.13.25-.25l48.65.1h.16v.15c0,4.07-.06,7.29-.08,9.54,0,1.06,0,1.9,0,2.5,0,.26,0,.46,0,.63S695.78,380.28,695.77,380.27Z" style="fill:#e0e0e0"></path><rect x="29.51" y="118.64" width="48.65" height="12.87" style="fill:#e0e0e0"></rect><rect x="64.49" y="92.22" width="48.65" height="12.87" style="fill:#ebebeb"></rect><path d="M92.57,118.64a1,1,0,0,1,0-.23v-.66c0-.61,0-1.45,0-2.53,0-2.23,0-5.42-.08-9.45l.15.15-48.65.1c.11-.11-.25.25.24-.25h0v12.86l-.24-.24,34.67.11,10.23.07,2.77,0,.72,0h.26a.94.94,0,0,1-.23,0l-.69,0-2.72,0-10.17.07-34.84.11h-.25V105.78h0c.49-.49.14-.13.25-.24l48.65.09h.15v.15c0,4.07-.06,7.29-.08,9.54,0,1.06,0,1.9,0,2.5,0,.26,0,.46,0,.63A1.23,1.23,0,0,1,92.57,118.64Z" style="fill:#e0e0e0"></path><path d="M409,57.9a1.17,1.17,0,0,1,0-.23V57c0-.61,0-1.45,0-2.54,0-2.22-.05-5.41-.08-9.44l.15.15-48.65.1c.11-.11-.25.24.24-.25h0V57.9l-.25-.24,34.68.11,10.23.07,2.77,0h.72l.26,0-.23,0H408l-2.72,0L395.14,58l-34.84.11h-.24V45.05h0l.25-.25,48.65.1h.15V45c0,4.06-.07,7.29-.09,9.53,0,1.07,0,1.9,0,2.5l0,.64A1.39,1.39,0,0,1,409,57.9Z" style="fill:#e0e0e0"></path><path d="M415.55,45s0-.09,0-.25,0-.41,0-.68c0-.63,0-1.49,0-2.58,0-2.26-.05-5.44-.09-9.36l.17.18-29.23.07.25-.25h0v6.61c0,2.15,0,4.24,0,6.24l-.24-.24,20.91.11,6.09.07L415,45l.58,0a3.28,3.28,0,0,1-.53,0l-1.59,0-6,.06-21.07.11h-.23V45c0-2,0-4.09,0-6.24,0-1.08,0-2.17,0-3.28V32.18h0l.25-.25,29.23.07h.18v.18c0,4-.07,7.19-.09,9.47,0,1.07,0,1.92-.05,2.54A4.88,4.88,0,0,1,415.55,45Z" style="fill:#e0e0e0"></path><path d="M698,200.41s0-.09,0-.24l0-.66c0-.6,0-1.45,0-2.53,0-2.22,0-5.42-.09-9.44l.15.15-48.65.09.25-.24h0v6.52c0,2.14,0,4.26,0,6.33l-.24-.25,34.67.11,10.24.07,2.76,0h.73l.25,0h-.22l-.7,0-2.71,0-10.18.07-34.84.11h-.24v-.24c0-2.07,0-4.19,0-6.33v-6.52h0l.25-.25,48.65.1h.15v.15c0,4.06-.06,7.29-.08,9.53,0,1.07,0,1.9,0,2.5v.63A.85.85,0,0,1,698,200.41Z" style="fill:#e0e0e0"></path><path d="M704.55,187.54a1.41,1.41,0,0,1,0-.25c0-.18,0-.41,0-.68l0-2.58c0-2.26-.06-5.45-.1-9.37l.18.18-29.23.07.24-.24h0v6.61c0,2.15,0,4.24,0,6.24l-.23-.24,20.91.11,6.09.07,1.64,0,.59,0a3.28,3.28,0,0,1-.53,0l-1.59,0-6,.07-21.07.11h-.24v-.23c0-2,0-4.09,0-6.24v-6.61h0c-.06.05.47-.47.25-.25l29.23.07h.18v.17c0,4-.08,7.19-.1,9.48,0,1.07,0,1.91,0,2.54S704.56,187.55,704.55,187.54Z" style="fill:#e0e0e0"></path></g><g id="freepik--Plant--inject-5"><path d="M493.19,295.44c-7.9-12.09-6.75-29.35,2.68-40.28,2.93-3.39,7-6.34,11.49-5.95s8.25,4.31,9.64,8.68.91,9.11.1,13.62C516,277.84,514,284.3,509.65,289s-10.83,9.52-16.46,6.44" style="fill:#F1F6F9"></path><path d="M497.55,353.6a18.08,18.08,0,0,1,5-20.51c1.81-1.48,4.19-2.63,6.46-2s3.86,3,4.18,5.35a14.88,14.88,0,0,1-1.19,7c-1.16,3.15-2.73,6.31-5.42,8.33s-6.44,3.92-9.07,1.83" style="fill:#F1F6F9"></path><path d="M478.5,349.45a26.13,26.13,0,0,0-13.17-27.58c-3-1.56-6.71-2.49-9.74-1s-4.6,5.35-4.36,8.81,1.92,6.66,3.75,9.61c2.58,4.13,5.74,8.14,10.14,10.21s10.28,3.66,13.38-.08" style="fill:#F1F6F9"></path><path d="M479.87,320.48c3.78-12.2-2.63-27-13.32-34-3.31-2.18-7.51-3.69-11.22-2.28s-6,5.68-6.1,9.74,1.45,8,3.24,11.61c2.51,5.11,5.72,10.14,10.59,13.07s12.76,5.86,16.81,1.86" style="fill:#F1F6F9"></path><path d="M487.47,380.14a2.41,2.41,0,0,1-.12-.59c-.07-.44-.15-1-.26-1.7,0-.38-.11-.79-.17-1.23s-.18-.94-.28-1.45c-.2-1.05-.4-2.24-.74-3.53l-.5-2c-.2-.7-.41-1.43-.63-2.18-.41-1.51-1-3.08-1.58-4.75a83.16,83.16,0,0,0-10.81-20.15c-1.08-1.39-2.06-2.76-3.09-3.94l-1.47-1.73-1.42-1.54c-.89-1-1.76-1.83-2.52-2.57l-1.06-1-.93-.83-1.28-1.15a2.85,2.85,0,0,1-.42-.43,3.19,3.19,0,0,1,.49.35l1.34,1.08,1,.79,1.09,1c.78.73,1.68,1.54,2.59,2.53l1.45,1.52,1.49,1.72c1.06,1.18,2.05,2.54,3.15,3.94a87.6,87.6,0,0,1,6.18,9.74,86.58,86.58,0,0,1,4.7,10.53c.56,1.68,1.14,3.26,1.54,4.79.21.76.41,1.49.61,2.2s.31,1.4.46,2.05c.32,1.3.5,2.51.68,3.56.08.52.16,1,.23,1.46s.09.86.13,1.24c.07.7.12,1.27.16,1.72A2.48,2.48,0,0,1,487.47,380.14Z" style="fill:#263238"></path><path d="M487.19,382.33a.73.73,0,0,1,0-.24l.05-.71c.06-.66.15-1.56.25-2.71.06-.59.13-1.24.2-2s.07-1.49.11-2.33c.07-1.68.23-3.59.17-5.7,0-1.06,0-2.16,0-3.31s-.12-2.35-.18-3.59c-.08-2.48-.42-5.12-.72-7.89a112.84,112.84,0,0,0-10.28-34.68c-1.26-2.49-2.41-4.88-3.7-7-.63-1.08-1.19-2.14-1.8-3.11l-1.8-2.79c-1.1-1.8-2.27-3.31-3.24-4.68-.49-.68-.94-1.33-1.37-1.9l-1.23-1.53c-.71-.91-1.28-1.62-1.69-2.14l-.43-.57c-.09-.12-.14-.19-.13-.2s.06,0,.17.17l.47.53,1.77,2.08,1.26,1.51c.45.56.91,1.2,1.41,1.87,1,1.36,2.19,2.86,3.32,4.66l1.83,2.78c.62,1,1.2,2,1.83,3.1,1.31,2.13,2.48,4.52,3.76,7a110.82,110.82,0,0,1,10.33,34.82c.28,2.79.61,5.43.67,7.93.05,1.24.15,2.44.15,3.6s0,2.26,0,3.32c0,2.12-.15,4-.24,5.72-.06.83-.09,1.62-.16,2.33s-.16,1.37-.24,2c-.14,1.14-.26,2.05-.34,2.71-.05.28-.08.51-.11.7S487.2,382.34,487.19,382.33Z" style="fill:#263238"></path><path d="M507.76,263.8s0,.08-.1.22-.21.38-.34.64L506,267.07c-.29.52-.63,1.09-1,1.74s-.68,1.37-1.06,2.13l-1.21,2.44c-.42.87-.81,1.81-1.24,2.79s-.9,2-1.34,3.09l-1.31,3.4-.69,1.79c-.21.62-.42,1.25-.64,1.88-.42,1.28-.87,2.58-1.32,3.93-1.67,5.41-3.26,11.44-4.6,17.84s-2.21,12.59-2.88,18.22-1,10.73-1.12,15c-.11,2.14-.13,4.08-.13,5.78s0,3.18,0,4.38,0,2.08,0,2.76V355a1.1,1.1,0,0,1,0,.24.75.75,0,0,1,0-.24c0-.19,0-.43-.05-.72,0-.67-.08-1.59-.14-2.76s-.09-2.67-.09-4.38,0-3.65.06-5.79c.07-4.3.46-9.41,1-15.06s1.54-11.84,2.84-18.27,2.95-12.46,4.66-17.89l1.35-3.93c.21-.63.43-1.26.64-1.88s.48-1.2.71-1.79c.46-1.18.91-2.31,1.34-3.4s.94-2.11,1.37-3.09.85-1.92,1.28-2.79.86-1.67,1.26-2.43.76-1.46,1.09-2.11.72-1.2,1-1.72l1.44-2.37.38-.6C507.7,263.86,507.75,263.79,507.76,263.8Z" style="fill:#263238"></path><path d="M505.07,337.94a10.26,10.26,0,0,1-.84,1.48c-.58.92-1.37,2.28-2.3,4s-2,3.79-3,6.14-2,5-2.91,7.84-1.52,5.59-2,8.12-.81,4.82-1,6.76-.31,3.5-.36,4.59a9.23,9.23,0,0,1-.14,1.69,12.48,12.48,0,0,1-.06-1.69c0-1.1,0-2.68.19-4.63a68.18,68.18,0,0,1,.89-6.81,77.41,77.41,0,0,1,2-8.18,76.35,76.35,0,0,1,3-7.88c1.07-2.36,2.13-4.43,3.11-6.12s1.82-3,2.45-3.93A10.48,10.48,0,0,1,505.07,337.94Z" style="fill:#263238"></path><polygon points="471.95 374.7 506.65 374.7 502.46 410.14 476.28 410.14 471.95 374.7" style="fill:#F1F6F9"></polygon><g style="opacity:0.30000000000000004"><polygon points="471.95 374.7 506.65 374.7 502.46 410.14 476.28 410.14 471.95 374.7"></polygon></g><path d="M505.3,385.13c0,.14-7.2.25-16.08.25s-16.08-.11-16.08-.25,7.2-.26,16.08-.26S505.3,385,505.3,385.13Z" style="fill:#fafafa"></path><path d="M505.3,387.49c0,.14-7.2.25-16.08.25s-16.08-.11-16.08-.25,7.2-.26,16.08-.26S505.3,387.34,505.3,387.49Z" style="fill:#fafafa"></path><path d="M504.87,389.77c0,.14-6.95.26-15.52.26s-15.52-.12-15.52-.26,6.95-.26,15.52-.26S504.87,389.63,504.87,389.77Z" style="fill:#fafafa"></path></g><g id="freepik--Fireworks--inject-5"><path d="M423.23,162.4a4.43,4.43,0,0,1-.59.39l-1.76,1c-.78.43-1.71,1-2.76,1.67s-2.29,1.41-3.56,2.35l-2,1.42c-.7.5-1.39,1.08-2.13,1.64-1.49,1.11-3,2.43-4.56,3.79a90.62,90.62,0,0,0-17.3,20.8c-1.05,1.8-2.07,3.5-2.89,5.17-.42.83-.86,1.61-1.22,2.39l-1,2.26c-.69,1.42-1.18,2.76-1.66,3.92s-.85,2.18-1.13,3-.52,1.43-.69,1.91a3.45,3.45,0,0,1-.28.66,4.05,4.05,0,0,1,.18-.69c.15-.49.35-1.14.59-2s.59-1.88,1.06-3,.92-2.53,1.59-4c.33-.73.66-1.49,1-2.28s.79-1.58,1.2-2.42c.81-1.68,1.83-3.4,2.87-5.22a87.11,87.11,0,0,1,17.4-20.91c1.6-1.36,3.1-2.67,4.61-3.77.75-.56,1.45-1.13,2.16-1.62l2.05-1.41c1.29-.92,2.55-1.63,3.62-2.29s2-1.19,2.81-1.59l1.81-.95A2.83,2.83,0,0,1,423.23,162.4Z" style="fill:#F1F6F9"></path><path d="M427.09,144.88c-.06.05-.81-1-2.12-2.63a59.1,59.1,0,0,0-5.51-6,60.45,60.45,0,0,0-6.3-5.13c-1.7-1.2-2.8-1.88-2.76-1.95a3.34,3.34,0,0,1,.83.38c.52.27,1.25.7,2.14,1.27A45.77,45.77,0,0,1,425.26,142c.62.85,1.1,1.55,1.4,2.06A2.79,2.79,0,0,1,427.09,144.88Z" style="fill:#F1F6F9"></path><path d="M417,124.49a31.59,31.59,0,0,1-2.19-2.56c-1.32-1.6-3.19-3.77-5.37-6.05s-4.28-4.24-5.81-5.63a26.06,26.06,0,0,1-2.46-2.3,3.47,3.47,0,0,1,.76.5c.47.34,1.13.86,1.94,1.52a73.06,73.06,0,0,1,11.23,11.73c.63.83,1.12,1.52,1.44,2A3.08,3.08,0,0,1,417,124.49Z" style="fill:#F1F6F9"></path><path d="M429.73,129a5.33,5.33,0,0,1-.26-1.26c-.12-.81-.32-2-.57-3.44a106.53,106.53,0,0,0-6.39-22c-.56-1.36-1-2.46-1.36-3.22a5.28,5.28,0,0,1-.45-1.2,7.17,7.17,0,0,1,.64,1.12c.38.73.9,1.81,1.51,3.16a86,86,0,0,1,6.41,22.13c.21,1.47.35,2.65.41,3.48A6.85,6.85,0,0,1,429.73,129Z" style="fill:#F1F6F9"></path><path d="M446,92.6a6.15,6.15,0,0,1-.56,1.16c-.39.72-.95,1.77-1.61,3.08a82.81,82.81,0,0,0-4.45,10.55,83.88,83.88,0,0,0-2.92,11.07c-.28,1.44-.48,2.61-.61,3.42a5.69,5.69,0,0,1-.26,1.26,6.85,6.85,0,0,1,.06-1.28c.07-.83.22-2,.45-3.47a68.94,68.94,0,0,1,7.4-21.72c.71-1.3,1.32-2.33,1.77-3A6.14,6.14,0,0,1,446,92.6Z" style="fill:#F1F6F9"></path><path d="M463.61,104.2c.11.09-4.19,5.39-9.61,11.84s-9.91,11.61-10,11.52,4.2-5.4,9.62-11.85S463.5,104.11,463.61,104.2Z" style="fill:#F1F6F9"></path><path d="M479.2,108.68a8.92,8.92,0,0,1-1.3.84c-.92.57-2.13,1.3-3.59,2.18-3,1.84-7.16,4.47-11.58,7.57s-8.3,6.11-11.06,8.33l-3.26,2.64a10.09,10.09,0,0,1-1.23.94,8.46,8.46,0,0,1,1.1-1.09c.73-.68,1.8-1.63,3.16-2.77,2.7-2.3,6.55-5.36,11-8.48s8.61-5.69,11.69-7.46c1.54-.89,2.8-1.58,3.69-2A9,9,0,0,1,479.2,108.68Z" style="fill:#F1F6F9"></path><path d="M488.46,130.73a5.64,5.64,0,0,1-1.31.17c-.84.07-2.06.19-3.57.37a86.81,86.81,0,0,0-22.85,5.8c-1.4.56-2.53,1-3.31,1.38a6.57,6.57,0,0,1-1.23.48,5.93,5.93,0,0,1,1.15-.66c.75-.4,1.86-.93,3.25-1.54a73.88,73.88,0,0,1,23-5.83c1.51-.13,2.74-.19,3.59-.2A7.54,7.54,0,0,1,488.46,130.73Z" style="fill:#F1F6F9"></path><path d="M493.46,151.65A10.85,10.85,0,0,1,492,151c-.47-.23-1-.51-1.73-.78s-1.44-.65-2.32-.95a53.62,53.62,0,0,0-6.22-2,54.16,54.16,0,0,0-15.84-1.59,57.64,57.64,0,0,0-6.49.7c-.92.13-1.74.33-2.46.47s-1.35.29-1.85.43a10.53,10.53,0,0,1-1.59.34,8.69,8.69,0,0,1,1.53-.54c.5-.16,1.12-.34,1.84-.51s1.54-.4,2.47-.55a49.76,49.76,0,0,1,6.52-.82,56.7,56.7,0,0,1,8.06.17,54.79,54.79,0,0,1,7.93,1.44,48.06,48.06,0,0,1,6.23,2.09c.88.34,1.64.72,2.31,1s1.24.61,1.7.87A8.71,8.71,0,0,1,493.46,151.65Z" style="fill:#F1F6F9"></path><path d="M488,164.53a48.6,48.6,0,0,1-6.49-2.72,48.59,48.59,0,0,1-6.27-3.2A93.82,93.82,0,0,1,488,164.53Z" style="fill:#F1F6F9"></path><path d="M469,173.61c-.05.07-1.34-.79-3.52-2a58.34,58.34,0,0,0-8.85-4,57.68,57.68,0,0,0-9.42-2.42c-2.45-.41-4-.55-4-.64a5.09,5.09,0,0,1,1.09,0,29.36,29.36,0,0,1,3,.28,48.42,48.42,0,0,1,18.4,6.45c1.07.65,1.92,1.21,2.48,1.63A4.46,4.46,0,0,1,469,173.61Z" style="fill:#F1F6F9"></path><path d="M485.72,183.34c-.06,0-.86-1-2.25-2.71a55.82,55.82,0,0,0-12.64-11.24c-1.82-1.19-3-1.85-2.95-1.92a3.2,3.2,0,0,1,.87.36c.56.27,1.34.69,2.28,1.25a45.67,45.67,0,0,1,12.72,11.32c.67.87,1.18,1.59,1.51,2.11A3.19,3.19,0,0,1,485.72,183.34Z" style="fill:#F1F6F9"></path><path d="M439.84,190.1a10.69,10.69,0,0,1-1.49-2.19A40.81,40.81,0,0,1,433.73,176a10.49,10.49,0,0,1-.38-2.63,18.41,18.41,0,0,1,.73,2.54,61.6,61.6,0,0,0,2,6,58.69,58.69,0,0,0,2.61,5.78A18.14,18.14,0,0,1,439.84,190.1Z" style="fill:#F1F6F9"></path><path d="M452.68,182a90.87,90.87,0,0,1-7.42-6.37,92.57,92.57,0,0,1-7.07-6.75,88.93,88.93,0,0,1,7.42,6.37A92.58,92.58,0,0,1,452.68,182Z" style="fill:#F1F6F9"></path><path d="M454.77,201.63a20.9,20.9,0,0,1-2.14-2.65c-1.26-1.69-2.94-4.06-4.71-6.74s-3.28-5.17-4.33-7a19.7,19.7,0,0,1-1.59-3,24.46,24.46,0,0,1,1.9,2.82c1.13,1.77,2.7,4.22,4.46,6.89s3.39,5.08,4.57,6.82A24.65,24.65,0,0,1,454.77,201.63Z" style="fill:#F1F6F9"></path><path d="M465.82,208.68a14,14,0,0,1-1.48-2.08c-.87-1.31-2.07-3.12-3.44-5.09s-2.65-3.72-3.58-5a13.23,13.23,0,0,1-1.44-2.11,12.28,12.28,0,0,1,1.73,1.88c1,1.22,2.34,3,3.71,4.92s2.54,3.83,3.33,5.19A11.63,11.63,0,0,1,465.82,208.68Z" style="fill:#F1F6F9"></path><path d="M416.71,206.19a13.47,13.47,0,0,1-.34-3,39.56,39.56,0,0,1,.4-7.3,38.36,38.36,0,0,1,1.75-7.11,12.62,12.62,0,0,1,1.2-2.79,28.79,28.79,0,0,1-.85,2.9,50.9,50.9,0,0,0-1.59,7.07,52.81,52.81,0,0,0-.54,7.23A27.17,27.17,0,0,1,416.71,206.19Z" style="fill:#F1F6F9"></path><path d="M405.3,211.61a5.31,5.31,0,0,1,0-1.26c0-.81.15-2,.33-3.42a73.68,73.68,0,0,1,6.25-21.68c.61-1.31,1.14-2.36,1.53-3.07a5.62,5.62,0,0,1,.65-1.07,4.9,4.9,0,0,1-.47,1.16c-.34.74-.81,1.8-1.38,3.13a95.58,95.58,0,0,0-3.79,10.6A93.76,93.76,0,0,0,406,207c-.22,1.42-.39,2.58-.49,3.38A6.71,6.71,0,0,1,405.3,211.61Z" style="fill:#F1F6F9"></path><path d="M424,210.71a5,5,0,0,1-.29-1c-.15-.67-.34-1.64-.53-2.85a60.16,60.16,0,0,1-.65-9.51,57.88,57.88,0,0,1,.88-9.51c.21-1.2.42-2.17.59-2.83a3.7,3.7,0,0,1,.32-1c.08,0-.21,1.5-.55,3.9a74.71,74.71,0,0,0-.72,9.45,76.46,76.46,0,0,0,.5,9.46C423.8,209.21,424.05,210.69,424,210.71Z" style="fill:#F1F6F9"></path><path d="M396.61,219.09a11.67,11.67,0,0,1,.1-2.73A38.15,38.15,0,0,1,398,209.9a37.35,37.35,0,0,1,2.35-6.15,10.32,10.32,0,0,1,1.37-2.36,20.1,20.1,0,0,1-1,2.51,52.9,52.9,0,0,0-3.59,12.51A19.2,19.2,0,0,1,396.61,219.09Z" style="fill:#F1F6F9"></path><path d="M389.08,173.75c0,.08-1.17.69-3.05,1.8a59.15,59.15,0,0,0-13.26,10.6c-1.49,1.59-2.36,2.63-2.42,2.58s.15-.31.52-.8.91-1.2,1.63-2a48.33,48.33,0,0,1,13.35-10.67c1-.52,1.76-.91,2.33-1.15A3.55,3.55,0,0,1,389.08,173.75Z" style="fill:#F1F6F9"></path><path d="M401.7,158.78a10.23,10.23,0,0,1-1.73.15l-2,.1-2.67.25a66.08,66.08,0,0,0-15.07,3.31,79.42,79.42,0,0,0-14,6.55l-4.07,2.36a10.77,10.77,0,0,1-1.53.79,11.37,11.37,0,0,1,1.43-1c.93-.6,2.28-1.47,4-2.5a72.22,72.22,0,0,1,14-6.72,60.8,60.8,0,0,1,15.21-3.19l2.68-.17h2A12.39,12.39,0,0,1,401.7,158.78Z" style="fill:#F1F6F9"></path><path d="M466.46,193.05a1.11,1.11,0,1,1-1.11-1.12A1.11,1.11,0,0,1,466.46,193.05Z" style="fill:#F1F6F9"></path><path d="M406.65,96.24a1.35,1.35,0,1,1-1.35-1.35A1.36,1.36,0,0,1,406.65,96.24Z" style="fill:#F1F6F9"></path><path d="M504,146.46a1.35,1.35,0,1,1-1.35-1.34A1.35,1.35,0,0,1,504,146.46Z" style="fill:#F1F6F9"></path><path d="M413.54,220.26a1.35,1.35,0,1,1-1.35-1.35A1.36,1.36,0,0,1,413.54,220.26Z" style="fill:#F1F6F9"></path><path d="M378,146.12a1.35,1.35,0,1,1-1.35-1.35A1.35,1.35,0,0,1,378,146.12Z" style="fill:#F1F6F9"></path><circle cx="388.04" cy="108.43" r="0.56" style="fill:#F1F6F9"></circle><path d="M371.46,196.91a.56.56,0,1,1-.56-.55A.56.56,0,0,1,371.46,196.91Z" style="fill:#F1F6F9"></path><circle cx="429.43" cy="209.68" r="0.56" style="fill:#F1F6F9"></circle><circle cx="485.72" cy="154.86" r="0.56" style="fill:#F1F6F9"></circle><circle cx="431.65" cy="98.26" r="0.56" style="fill:#F1F6F9"></circle><path d="M416.88,170.82c.33.33-4.8,5.71-10,13.17s-8.58,14.09-9,13.89,2.38-7.2,7.74-14.79S416.62,170.52,416.88,170.82Z" style="fill:#F1F6F9"></path><path d="M422.12,180.61c-.41,0-.54-4.51,1-9.78s4.1-9,4.44-8.77-1.46,4.13-2.94,9.21S422.57,180.64,422.12,180.61Z" style="fill:#F1F6F9"></path><path d="M423.23,154.08c0,.25-3.73-.2-9.71-.46a119.11,119.11,0,0,0-23.26,1.24A101.65,101.65,0,0,0,367.81,161c-5.55,2.22-8.82,4-8.95,3.77a8.91,8.91,0,0,1,2.16-1.5c.71-.46,1.62-1,2.69-1.5l1.7-.89,2-.9A87.34,87.34,0,0,1,390,153.31a99.31,99.31,0,0,1,23.57-.79c3,.29,5.43.59,7.09.92A8.33,8.33,0,0,1,423.23,154.08Z" style="fill:#F1F6F9"></path><path d="M425.88,145.61c-.14.2-2.66-1.43-6.93-3.68-2.12-1.14-4.71-2.37-7.64-3.62a101.18,101.18,0,0,0-9.73-3.46,102.37,102.37,0,0,0-10.07-2.34c-3.14-.52-6-.88-8.39-1.07-4.8-.4-7.81-.38-7.82-.64s3-.59,7.88-.46a71.66,71.66,0,0,1,8.56.75A84,84,0,0,1,402,133.35a82.12,82.12,0,0,1,9.87,3.64,73.89,73.89,0,0,1,7.61,4C423.68,143.5,426,145.46,425.88,145.61Z" style="fill:#F1F6F9"></path><path d="M466.63,90.52c.15.22-3,2.17-7.2,6.24A78.12,78.12,0,0,0,445.67,115,183.49,183.49,0,0,0,436,135.83c-2.21,5.49-3.6,8.88-3.81,8.8S433,141,435,135.44a135.68,135.68,0,0,1,9.32-21.25,69.43,69.43,0,0,1,14.37-18.25,43.75,43.75,0,0,1,5.64-4.24A7.24,7.24,0,0,1,466.63,90.52Z" style="fill:#F1F6F9"></path><path d="M484.45,119.27c.06.24-2.92,1-7.6,2.68-2.35.81-5.09,1.88-8.09,3.19s-6.22,2.92-9.5,4.77-6.3,3.84-9,5.72-5,3.71-6.89,5.31c-3.8,3.18-6,5.34-6.19,5.16s1.8-2.56,5.46-6a83.48,83.48,0,0,1,6.77-5.65,86,86,0,0,1,18.75-10.64,81.13,81.13,0,0,1,8.32-2.93C481.33,119.51,484.42,119.09,484.45,119.27Z" style="fill:#F1F6F9"></path><path d="M416.5,128.33c-.33.32-4.31-3.28-9.68-7.06s-10.08-6.36-9.88-6.77,5.29,1.59,10.78,5.5S416.8,128.05,416.5,128.33Z" style="fill:#F1F6F9"></path><path d="M408.54,130.66c-.23.42-7.49-3.36-17-6.45s-17.62-4.38-17.55-4.85,8.33.17,18,3.37S408.75,130.34,408.54,130.66Z" style="fill:#F1F6F9"></path><path d="M413.84,160.24c.09.5-9.92,1.55-21.12,6.46A112,112,0,0,0,378.91,174c-3.43,2.1-5.52,3.46-5.66,3.27s1.75-1.84,5.05-4.19a77.51,77.51,0,0,1,13.8-7.79,67.28,67.28,0,0,1,15.19-4.53C411.3,160.08,413.82,160.05,413.84,160.24Z" style="fill:#F1F6F9"></path><path d="M435.32,213.64c-.19.06-1.25-2.6-2.44-7.06a105.18,105.18,0,0,1-3-35.81c.44-4.6,1.05-7.39,1.24-7.37s0,2.87-.14,7.44a157.77,157.77,0,0,0,.4,17.84A154.55,154.55,0,0,0,434,206.33C434.86,210.81,435.54,213.57,435.32,213.64Z" style="fill:#F1F6F9"></path><path d="M480.51,192.86c-.35.36-7.78-7.25-18.84-14.05s-21.14-10.15-21-10.62c.06-.18,2.66.4,6.7,1.88a86.14,86.14,0,0,1,28.44,17.62C479,190.66,480.65,192.73,480.51,192.86Z" style="fill:#F1F6F9"></path><path d="M505.68,182.73c-.16.21-3.39-2.32-9-5.83l-2.2-1.36c-.76-.47-1.59-.91-2.43-1.39-1.67-1-3.52-1.92-5.45-2.92A116.76,116.76,0,0,0,460,161.7c-2.13-.45-4.15-.91-6.07-1.21-.95-.15-1.87-.34-2.76-.46l-2.56-.35c-6.55-.84-10.65-.93-10.65-1.2a10.3,10.3,0,0,1,2.89-.22c.93,0,2.07,0,3.39,0s2.83.1,4.49.28l2.6.25c.9.09,1.84.25,2.81.38,1.95.25,4,.67,6.17,1.08a112.77,112.77,0,0,1,13.8,3.9A109.93,109.93,0,0,1,487.28,170c1.93,1.05,3.79,2,5.44,3.08.84.51,1.66,1,2.42,1.49l2.17,1.46c1.39.9,2.58,1.84,3.64,2.63s1.94,1.51,2.64,2.12C505,181.94,505.75,182.65,505.68,182.73Z" style="fill:#F1F6F9"></path><path d="M472.56,155.41c-.13.48-8.24-2.11-18.58-2.33s-18.57,1.86-18.68,1.38c-.05-.19,1.94-1,5.31-1.72a57.91,57.91,0,0,1,26.74.69C470.67,154.34,472.62,155.23,472.56,155.41Z" style="fill:#F1F6F9"></path><path d="M414.17,144.11c-.1.23-2.75-.88-7.23-2a88.94,88.94,0,0,0-17.8-2.46,85.32,85.32,0,0,0-17.94,1.12c-4.54.81-7.28,1.67-7.37,1.42s2.58-1.4,7.15-2.5a68.72,68.72,0,0,1,18.22-1.61,71.48,71.48,0,0,1,18,3C411.73,142.46,414.26,144,414.17,144.11Z" style="fill:#F1F6F9"></path><path d="M413.54,149.34c-.15.45-5.57-1.17-12.45-1.34s-12.38,1.09-12.49.63c-.06-.19,1.26-.78,3.52-1.32a36.3,36.3,0,0,1,18,.52C412.32,148.49,413.6,149.15,413.54,149.34Z" style="fill:#F1F6F9"></path><path d="M429.43,144.62c-.48.11-2.65-10.68-8-23.05s-11.54-21.43-11.13-21.7c.16-.12,1.93,2,4.38,5.72a101.83,101.83,0,0,1,13.62,31.9C429.32,141.84,429.62,144.59,429.43,144.62Z" style="fill:#F1F6F9"></path><path d="M419.87,161.57c.09.24-2.92,1.42-7.54,3.8-2.32,1.16-5,2.72-7.91,4.53a99.64,99.64,0,0,0-9,6.5,85.6,85.6,0,0,0-8.16,7.57c-1.16,1.26-2.26,2.46-3.21,3.65s-1.83,2.3-2.6,3.34c-3.05,4.19-4.53,7.07-4.78,6.95a6.87,6.87,0,0,1,.81-2.15,21.83,21.83,0,0,1,1.22-2.39c.53-.9,1.08-2,1.84-3S382,188,383,186.81s2-2.5,3.16-3.81a74,74,0,0,1,8.23-7.81,84.75,84.75,0,0,1,9.27-6.52,77,77,0,0,1,8.19-4.29C416.65,162.22,419.82,161.4,419.87,161.57Z" style="fill:#F1F6F9"></path><path d="M479.57,138.79c0,.25-2.62.22-6.8.55-2.09.15-4.56.45-7.29.89a76.94,76.94,0,0,0-17.22,5c-2.54,1.08-4.79,2.15-6.64,3.14-3.7,2-5.89,3.38-6,3.18s1.87-1.9,5.5-4.14a59.64,59.64,0,0,1,6.61-3.5,68.93,68.93,0,0,1,8.6-3.18,70.68,70.68,0,0,1,9-1.91,58.65,58.65,0,0,1,7.46-.58C477,138.19,479.59,138.61,479.57,138.79Z" style="fill:#F1F6F9"></path><path d="M283.73,162.62a.73.73,0,1,1-.72-.73A.73.73,0,0,1,283.73,162.62Z" style="fill:#F1F6F9"></path><path d="M332.2,142.09a.72.72,0,0,1-1.44,0,.72.72,0,1,1,1.44,0Z" style="fill:#F1F6F9"></path><path d="M257,128.13a.73.73,0,0,1-.73.72.72.72,0,0,1,0-1.44A.73.73,0,0,1,257,128.13Z" style="fill:#F1F6F9"></path><path d="M270.75,111.31a.73.73,0,1,1-.72-.72A.73.73,0,0,1,270.75,111.31Z" style="fill:#F1F6F9"></path><path d="M293.79,100.61a.73.73,0,1,1-.72-.73A.73.73,0,0,1,293.79,100.61Z" style="fill:#F1F6F9"></path><path d="M310.32,111.31a.72.72,0,1,1-.72-.72A.73.73,0,0,1,310.32,111.31Z" style="fill:#F1F6F9"></path><path d="M317.6,152.46a.73.73,0,1,1-.72-.72A.72.72,0,0,1,317.6,152.46Z" style="fill:#F1F6F9"></path><path d="M267.74,148.22a.72.72,0,1,1-.72-.72A.72.72,0,0,1,267.74,148.22Z" style="fill:#F1F6F9"></path><path d="M313.42,163.7a.31.31,0,0,1-.3.3.3.3,0,0,1-.3-.3.29.29,0,0,1,.3-.3A.3.3,0,0,1,313.42,163.7Z" style="fill:#F1F6F9"></path><path d="M260.18,141.55a.29.29,0,0,1-.3.3.3.3,0,0,1-.3-.3.31.31,0,0,1,.3-.3A.3.3,0,0,1,260.18,141.55Z" style="fill:#F1F6F9"></path><circle cx="269.6" cy="123.57" r="0.3" style="fill:#F1F6F9"></circle><path d="M323.65,133.18a.3.3,0,0,1-.3.3.31.31,0,0,1-.3-.3.3.3,0,0,1,.3-.3A.29.29,0,0,1,323.65,133.18Z" style="fill:#F1F6F9"></path><path d="M286.64,110.59a.29.29,0,0,1-.3.3.3.3,0,0,1-.3-.3.31.31,0,0,1,.3-.3A.3.3,0,0,1,286.64,110.59Z" style="fill:#F1F6F9"></path><path d="M321.71,114.88a.29.29,0,0,1-.3.3.3.3,0,1,1,0-.59A.29.29,0,0,1,321.71,114.88Z" style="fill:#F1F6F9"></path><path d="M298,126.41c.28,0,.36,1.9-.07,4.16s-1.17,4-1.44,3.91,0-1.89.42-4.1S297.74,126.38,298,126.41Z" style="fill:#F1F6F9"></path><path d="M303.87,109.53c.28.08-.42,3.54-1.56,7.73s-2.29,7.53-2.57,7.45.42-3.53,1.56-7.73S303.59,109.46,303.87,109.53Z" style="fill:#F1F6F9"></path><path d="M306,119.13c.26.13-.92,3.13-2.63,6.71s-3.32,6.38-3.58,6.25.92-3.12,2.64-6.7S305.74,119,306,119.13Z" style="fill:#F1F6F9"></path><path d="M316.16,118.05c.2.22-2.23,2.79-5.18,6s-5.33,5.82-5.56,5.64,1.81-3.12,4.8-6.34S316,117.85,316.16,118.05Z" style="fill:#F1F6F9"></path><path d="M306.94,131.74c.14.26-1.25,1.25-3.1,2.21s-3.45,1.53-3.58,1.28,1.26-1.24,3.1-2.21S306.81,131.49,306.94,131.74Z" style="fill:#F1F6F9"></path><path d="M328.34,122.46c.11.28-4,2.06-8.95,4.46s-8.92,4.49-9.07,4.23,3.6-2.76,8.62-5.17S328.25,122.2,328.34,122.46Z" style="fill:#F1F6F9"></path><path d="M316.87,133.18c.07.28-2.16,1.06-5,1.76s-5.15,1-5.22.74,2.16-1.06,5-1.75S316.8,132.9,316.87,133.18Z" style="fill:#F1F6F9"></path><path d="M326.92,139.28c0,.28-3.61.63-8.09.48s-8.07-.74-8-1,3.63-.17,8.07,0S326.91,139,326.92,139.28Z" style="fill:#F1F6F9"></path><path d="M308,142.09c-.09.27-1.77,0-3.76-.59s-3.53-1.3-3.45-1.58,1.76,0,3.75.59S308.05,141.81,308,142.09Z" style="fill:#F1F6F9"></path><path d="M329.48,148.9c-.1.28-4.12-.79-9.07-2.1s-9-2.4-8.92-2.69,4.2.35,9.19,1.68S329.56,148.64,329.48,148.9Z" style="fill:#F1F6F9"></path><path d="M312.77,149.76c-.11.25-2-.35-4.07-1.62s-3.47-2.68-3.29-2.9,1.82.78,3.83,2S312.9,149.49,312.77,149.76Z" style="fill:#F1F6F9"></path><path d="M317.6,163.34c-.22.19-3-2.59-6.23-6.2s-5.67-6.71-5.45-6.9,3,2.59,6.23,6.2S317.81,163.15,317.6,163.34Z" style="fill:#F1F6F9"></path><path d="M302.28,150.2c-.24.17-1.34-1-2.47-2.6s-1.86-3-1.63-3.21,1.35,1,2.48,2.61S302.51,150,302.28,150.2Z" style="fill:#F1F6F9"></path><path d="M313.12,172.17c-.25.14-2.44-3.3-4.6-7.84s-3.45-8.4-3.19-8.51,2,3.57,4.13,8.06S313.38,172,313.12,172.17Z" style="fill:#F1F6F9"></path><path d="M301.09,162.91c-.28.07-1.27-2.75-2.22-6.3s-1.5-6.5-1.22-6.57,1.27,2.75,2.22,6.3S301.37,162.83,301.09,162.91Z" style="fill:#F1F6F9"></path><path d="M294.82,169.72c-.29,0-.56-3.45-.61-7.71s.15-7.71.44-7.72.56,3.45.6,7.71S295.11,169.72,294.82,169.72Z" style="fill:#F1F6F9"></path><path d="M292.22,153.3c-.28-.06-.16-1.94.27-4.2s1-4.06,1.3-4,.16,1.94-.28,4.2S292.5,153.35,292.22,153.3Z" style="fill:#F1F6F9"></path><path d="M286.37,171.83c-.28-.07.34-3.64,1.38-8s2.11-7.79,2.39-7.72-.34,3.63-1.38,8S286.65,171.89,286.37,171.83Z" style="fill:#F1F6F9"></path><path d="M284.43,159.8c-.26-.13.64-2.59,2-5.5s2.69-5.17,2.95-5.05-.63,2.57-2,5.49S284.68,159.93,284.43,159.8Z" style="fill:#F1F6F9"></path><path d="M283.77,151.06c.18.22-2.16,2.41-5.09,5.05s-5.36,4.74-5.56,4.53,1.9-2.65,4.86-5.3S283.59,150.84,283.77,151.06Z" style="fill:#F1F6F9"></path><path d="M290.27,141.85c.17.24-1.33,1.55-3.33,2.94s-3.77,2.32-3.93,2.09,1.33-1.56,3.33-2.95S290.11,141.61,290.27,141.85Z" style="fill:#F1F6F9"></path><path d="M279.51,149.22c.09.28-3.43,1.64-7.71,3.42s-7.73,3.32-7.87,3.06,3.13-2.22,7.47-4S279.43,149,279.51,149.22Z" style="fill:#F1F6F9"></path><path d="M283.63,142.45c.1.26-2.57,1.54-6,2.64s-6.39,1.6-6.46,1.33,2.71-1.23,6.14-2.32S283.52,142.18,283.63,142.45Z" style="fill:#F1F6F9"></path><path d="M280.22,139.38c0,.29-3.14.57-7,.62s-7-.15-7-.44,3.13-.56,7-.61S280.21,139.1,280.22,139.38Z" style="fill:#F1F6F9"></path><path d="M288,138.16c0,.28-1.49.38-3.23-.06s-3-1.24-2.86-1.5,1.48.07,3.12.49S288,137.87,288,138.16Z" style="fill:#F1F6F9"></path><path d="M278.53,134.85c-.06.28-4.22-.36-9.17-1.84s-8.79-3.22-8.68-3.47,4.06,1,9,2.47S278.59,134.56,278.53,134.85Z" style="fill:#F1F6F9"></path><path d="M285.89,134.17c-.16.25-2.67-1.16-5.78-2.81s-5.68-3-5.57-3.23,2.89.62,6.06,2.31S286.05,133.94,285.89,134.17Z" style="fill:#F1F6F9"></path><path d="M285.67,129.16c-.2.21-3.12-2.31-6.64-5.49s-6.32-5.84-6.13-6.07,3.29,2.09,6.83,5.29S285.87,129,285.67,129.16Z" style="fill:#F1F6F9"></path><path d="M292,135.75c-.25.13-1.4-1.54-2.37-3.83s-1.37-4.27-1.1-4.35,1.11,1.71,2.06,4S292.23,135.61,292,135.75Z" style="fill:#F1F6F9"></path><path d="M292.9,131c-.28.09-1.48-2.85-2.69-6.57s-2-6.79-1.69-6.88,1.47,2.85,2.68,6.56S293.17,130.87,292.9,131Z" style="fill:#F1F6F9"></path><path d="M295.09,124.43c-.28,0-.59-3.51-.69-7.84s.07-7.87.36-7.87.59,3.5.69,7.84S295.38,124.42,295.09,124.43Z" style="fill:#F1F6F9"></path><path d="M288.25,125.3c-.26.13-2.78-4.06-5.65-9.37s-5-9.72-4.73-9.86,2.78,4.06,5.65,9.37S288.5,125.16,288.25,125.3Z" style="fill:#F1F6F9"></path></g><g id="freepik--Window--inject-5"><rect x="92.13" y="77.45" width="131.53" height="331.62" style="fill:#455a64"></rect><rect x="99.41" y="87.9" width="114.11" height="151.63" style="fill:#fff"></rect><path d="M214,240H98.91V87.4H214ZM99.91,239H213V88.4H99.91Z" style="fill:#263238"></path><path d="M190.75,111.59c.12.08-14.08,21.47-31.72,47.76s-32,47.56-32.16,47.48S141,185.37,158.6,159.06,190.64,111.51,190.75,111.59Z" style="fill:#263238"></path><path d="M161.8,142.38c.12.08-4.66,7.59-10.67,16.78s-11,16.58-11.11,16.5,4.66-7.59,10.67-16.78S161.68,142.3,161.8,142.38Z" style="fill:#263238"></path><rect x="99.41" y="248.9" width="114.11" height="151.63" style="fill:#fff"></rect><path d="M214,401H98.91V248.4H214ZM99.91,400H213V249.4H99.91Z" style="fill:#263238"></path><path d="M190.75,272.58c.12.08-14.08,21.47-31.72,47.77s-32,47.56-32.16,47.48S141,346.36,158.6,320.06,190.64,272.5,190.75,272.58Z" style="fill:#263238"></path><path d="M161.8,303.37c.12.08-4.66,7.6-10.67,16.79s-11,16.58-11.11,16.5,4.66-7.59,10.67-16.79S161.68,303.3,161.8,303.37Z" style="fill:#263238"></path><path d="M223.66,77.63a8.4,8.4,0,0,1-1.32,1.77,44.66,44.66,0,0,1-3.7,3.81,47.21,47.21,0,0,1-4.11,3.38,7.93,7.93,0,0,1-1.87,1.17c-.09-.12,2.6-2.13,5.62-4.93S223.54,77.53,223.66,77.63Z" style="fill:#263238"></path><path d="M92.26,77.35c.15-.07,1.24,2.64,3.35,5.5s4.34,4.73,4.23,4.85a5.8,5.8,0,0,1-1.54-1.13,21.9,21.9,0,0,1-5.43-7.41A5.57,5.57,0,0,1,92.26,77.35Z" style="fill:#263238"></path><path d="M99.5,400.23c.11.11-1.81,2.06-4,4.61s-3.9,4.7-4,4.61a24.29,24.29,0,0,1,3.63-5A24.69,24.69,0,0,1,99.5,400.23Z" style="fill:#263238"></path><path d="M223.51,408.08a40.74,40.74,0,0,1-5.36-3.63,40,40,0,0,1-5.05-4.05,40.74,40.74,0,0,1,5.36,3.63A39.82,39.82,0,0,1,223.51,408.08Z" style="fill:#263238"></path><path d="M223.07,69.35v350.4H528.92V69.35Zm297.65,341H231.27V78.74H520.72Z" style="fill:#263238"></path><path d="M378.74,411s-.06.05-.2.13l-.64.34c-.56.3-1.4.71-2.49,1.21a67.51,67.51,0,0,1-9.59,3.45,72,72,0,0,1-14.9,2.48,74,74,0,0,1-8.93,0c-3.1-.21-6.28-.58-9.53-1-6.49-.93-12.66-2-18.32-2.26a87.11,87.11,0,0,0-15,.45,90.13,90.13,0,0,0-10,1.72l-2.68.65-.7.17a.66.66,0,0,1-.25,0l.23-.09.69-.22c.6-.19,1.5-.44,2.66-.75a81.05,81.05,0,0,1,10-1.89,85.08,85.08,0,0,1,15.1-.56c5.7.28,11.88,1.3,18.36,2.22,3.24.46,6.42.84,9.49,1.05a73.29,73.29,0,0,0,33.3-5.59c1.11-.46,2-.85,2.53-1.12l.66-.29Z" style="fill:#455a64"></path><path d="M406.9,410.15a28.83,28.83,0,0,1-3.22.94,77.87,77.87,0,0,0-7.64,2.59,72.85,72.85,0,0,0-7.3,3.42,29.41,29.41,0,0,1-3,1.57,3.14,3.14,0,0,1,.71-.56c.48-.34,1.18-.8,2.08-1.33a52.26,52.26,0,0,1,7.29-3.58,55,55,0,0,1,7.74-2.47c1-.23,1.84-.4,2.41-.49A2.9,2.9,0,0,1,406.9,410.15Z" style="fill:#455a64"></path><path d="M484.93,411.1a2.91,2.91,0,0,1-.65.37c-.44.24-1.1.53-2,.9a35.93,35.93,0,0,1-7.67,2.07,60.34,60.34,0,0,1-11.77.6c-4.44-.16-9.29-.74-14.36-1.28a109.2,109.2,0,0,0-14.34-.84,47.45,47.45,0,0,0-11.57,1.61,31.52,31.52,0,0,0-7.28,3c-1.61,1-2.42,1.6-2.46,1.55a4.54,4.54,0,0,1,.58-.48,19.1,19.1,0,0,1,1.77-1.24,30,30,0,0,1,7.29-3.18,46.66,46.66,0,0,1,11.65-1.73,106.15,106.15,0,0,1,14.41.8c5.08.55,9.91,1.13,14.33,1.32a61.92,61.92,0,0,0,11.69-.48,39.35,39.35,0,0,0,7.66-1.9c.87-.33,1.54-.6,2-.8A5.16,5.16,0,0,1,484.93,411.1Z" style="fill:#455a64"></path><path d="M496.73,410.68s-.13.26-.44.66a13.94,13.94,0,0,1-1.46,1.6,21.6,21.6,0,0,1-5.9,4,23.34,23.34,0,0,1-6.84,2,16.53,16.53,0,0,1-2.15.15,2.77,2.77,0,0,1-.79-.06c0-.09,1.11-.15,2.88-.45a28,28,0,0,0,6.68-2.08,24.84,24.84,0,0,0,5.87-3.77C495.94,411.49,496.66,410.63,496.73,410.68Z" style="fill:#455a64"></path><path d="M513.24,419.48s-.26,0-.72,0a8.33,8.33,0,0,1-1.93-.46,3.7,3.7,0,0,1-2.18-2.05,2.47,2.47,0,0,1,.15-1.84,5.07,5.07,0,0,1,1.17-1.52,13.38,13.38,0,0,1,5.76-3,7.56,7.56,0,0,1,2.67-.29c0,.09-1,.18-2.57.64a14.72,14.72,0,0,0-5.5,3c-.9.8-1.55,1.89-1.22,2.84a3.39,3.39,0,0,0,1.87,1.85C512.21,419.29,513.27,419.38,513.24,419.48Z" style="fill:#455a64"></path><path d="M280,410.77s-.09.24-.33.63a5.48,5.48,0,0,1-.48.69,8.23,8.23,0,0,1-.71.86,16.3,16.3,0,0,1-5.16,3.82,18,18,0,0,1-6.19,1.73,8.33,8.33,0,0,1-2.66,0c0-.09,1-.09,2.62-.32a21.13,21.13,0,0,0,6-1.84,18.65,18.65,0,0,0,5.13-3.6C279.4,411.56,280,410.72,280,410.77Z" style="fill:#455a64"></path><path d="M251.37,410.46s.21-.08.58-.1a5,5,0,0,1,1.6.2,2.87,2.87,0,0,1,1.78,4.42,4.84,4.84,0,0,1-2.18,2,10,10,0,0,1-2.24.76,7.29,7.29,0,0,1-2.14.28,11.23,11.23,0,0,1,2-.63,12.14,12.14,0,0,0,2.11-.84,4.58,4.58,0,0,0,1.95-1.81,2.73,2.73,0,0,0,.18-2.5,2.79,2.79,0,0,0-1.63-1.33A18.53,18.53,0,0,0,251.37,410.46Z" style="fill:#455a64"></path><path d="M241.26,78.06c-.12.09-1.85-2-4.1-4.34s-4.17-4.25-4.07-4.36a23.68,23.68,0,0,1,4.45,4A23.54,23.54,0,0,1,241.26,78.06Z" style="fill:#455a64"></path><path d="M378.74,70.26s-.06,0-.2.13l-.64.34c-.56.29-1.4.71-2.49,1.2a67.33,67.33,0,0,1-9.59,3.46A71.51,71.51,0,0,1,342,77.84c-3.1-.2-6.28-.57-9.53-1-6.49-.92-12.66-2-18.32-2.25a87.2,87.2,0,0,0-15,.44,92.13,92.13,0,0,0-10,1.73l-2.68.65-.7.17a1.07,1.07,0,0,1-.25,0,.92.92,0,0,1,.23-.09l.69-.22c.6-.19,1.5-.44,2.66-.75a81.05,81.05,0,0,1,10-1.89,84.14,84.14,0,0,1,15.1-.56c5.7.27,11.88,1.29,18.36,2.22,3.24.46,6.42.83,9.49,1a73.23,73.23,0,0,0,8.87.06A73.71,73.71,0,0,0,365.73,75a72.5,72.5,0,0,0,9.59-3.28c1.11-.47,2-.85,2.53-1.12l.66-.29A.88.88,0,0,1,378.74,70.26Z" style="fill:#455a64"></path><path d="M406.9,69.4a30,30,0,0,1-3.22.95A75.29,75.29,0,0,0,396,72.94a72.85,72.85,0,0,0-7.3,3.42,29.41,29.41,0,0,1-3,1.57,3.31,3.31,0,0,1,.71-.57c.48-.33,1.18-.79,2.08-1.32a53.31,53.31,0,0,1,7.29-3.59A54.76,54.76,0,0,1,403.59,70c1-.24,1.84-.41,2.41-.49A3.17,3.17,0,0,1,406.9,69.4Z" style="fill:#455a64"></path><path d="M484.93,70.36a3.52,3.52,0,0,1-.65.37c-.44.24-1.1.53-2,.9a36.54,36.54,0,0,1-7.67,2.07,60.34,60.34,0,0,1-11.77.6c-4.44-.16-9.29-.74-14.36-1.29a110.86,110.86,0,0,0-14.34-.83,47.45,47.45,0,0,0-11.57,1.61,31.08,31.08,0,0,0-7.28,3c-1.61.94-2.42,1.6-2.46,1.55a4,4,0,0,1,.58-.49c.38-.31,1-.72,1.77-1.24a29.65,29.65,0,0,1,7.29-3.17,46.66,46.66,0,0,1,11.65-1.73,106.07,106.07,0,0,1,14.41.79c5.08.55,9.91,1.14,14.33,1.33a61.85,61.85,0,0,0,11.69-.49,38.74,38.74,0,0,0,7.66-1.89c.87-.34,1.54-.6,2-.81A5.78,5.78,0,0,1,484.93,70.36Z" style="fill:#455a64"></path><path d="M496.73,69.94s-.13.26-.44.66a14,14,0,0,1-1.46,1.59,21.6,21.6,0,0,1-5.9,4,23.65,23.65,0,0,1-6.84,2,18.12,18.12,0,0,1-2.15.14,2.6,2.6,0,0,1-.79,0c0-.09,1.11-.15,2.88-.46a27.5,27.5,0,0,0,6.68-2.07,24.84,24.84,0,0,0,5.87-3.78C495.94,70.74,496.66,69.88,496.73,69.94Z" style="fill:#455a64"></path><path d="M513.24,78.74a2,2,0,0,1-.72,0,7.84,7.84,0,0,1-1.93-.46,3.65,3.65,0,0,1-2.18-2,2.46,2.46,0,0,1,.15-1.84,5,5,0,0,1,1.17-1.52,13.38,13.38,0,0,1,5.76-3,7.28,7.28,0,0,1,2.67-.29c0,.09-1,.18-2.57.64a14.72,14.72,0,0,0-5.5,3c-.9.8-1.55,1.88-1.22,2.83a3.32,3.32,0,0,0,1.87,1.85C512.21,78.55,513.27,78.64,513.24,78.74Z" style="fill:#455a64"></path><path d="M280,70s-.09.25-.33.64a7.45,7.45,0,0,1-.48.69,9.41,9.41,0,0,1-.71.86A16.45,16.45,0,0,1,273.36,76a18.26,18.26,0,0,1-6.19,1.73,8.71,8.71,0,0,1-2.66,0c0-.09,1-.09,2.62-.32a21.13,21.13,0,0,0,6-1.84,18.65,18.65,0,0,0,5.13-3.6C279.4,70.81,280,70,280,70Z" style="fill:#455a64"></path><path d="M251.37,69.72s.21-.08.58-.1a4.89,4.89,0,0,1,1.6.19,3.2,3.2,0,0,1,1.94,1.47,3.13,3.13,0,0,1-.16,3,4.82,4.82,0,0,1-2.18,2,9.63,9.63,0,0,1-2.24.77,7.29,7.29,0,0,1-2.14.28,11.66,11.66,0,0,1,2-.64,11.3,11.3,0,0,0,2.11-.83A4.54,4.54,0,0,0,254.88,74a2.71,2.71,0,0,0,.18-2.49,2.85,2.85,0,0,0-1.63-1.34A19.72,19.72,0,0,0,251.37,69.72Z" style="fill:#455a64"></path><path d="M230,113.18a64.88,64.88,0,0,0-2.71-6.58,58,58,0,0,0-3.92-5.94,6.67,6.67,0,0,1,1.52,1.47,22.78,22.78,0,0,1,2.86,4.23,23.64,23.64,0,0,1,1.88,4.74A6.35,6.35,0,0,1,230,113.18Z" style="fill:#455a64"></path><path d="M223.89,157a4.19,4.19,0,0,1-.16-1.07c-.08-.7-.12-1.71-.13-3a43.63,43.63,0,0,1,1.08-9.67,42.37,42.37,0,0,1,3.23-9.18c.55-1.12,1-2,1.41-2.6a4.35,4.35,0,0,1,.62-.89c.08.05-.68,1.38-1.69,3.64a49.7,49.7,0,0,0-3.06,9.14A51.13,51.13,0,0,0,224,153C223.89,155.49,224,157,223.89,157Z" style="fill:#455a64"></path><path d="M228.32,200.41a3.3,3.3,0,0,1-.21.62c-.16.4-.37,1-.63,1.75a35.74,35.74,0,0,0-1.57,6.66,34.24,34.24,0,0,0-.33,4.71c0,.85,0,1.73.09,2.63a8.24,8.24,0,0,0,.47,2.67,1.55,1.55,0,0,0,.82.91A1,1,0,0,0,228,220a5.16,5.16,0,0,0,.81-2.77q.33-3.12.52-6.44c.25-4.42.27-8.64.13-12.47-.06-1.92-.16-3.74-.29-5.44-.07-.85-.13-1.68-.21-2.45a3.42,3.42,0,0,0-.73-2,1.26,1.26,0,0,0-1.64-.3,3.31,3.31,0,0,0-.88,1.5c-.42,1.06-.78,2-1.09,2.75l-.71,1.73a3.38,3.38,0,0,1-.28.6,3,3,0,0,1,.18-.63l.62-1.77,1-2.79a3.47,3.47,0,0,1,.95-1.65,1.36,1.36,0,0,1,1.09-.26,2,2,0,0,1,1,.56,3.79,3.79,0,0,1,.87,2.2c.1.8.16,1.61.24,2.47.15,1.7.26,3.53.34,5.45.17,3.85.16,8.08-.09,12.52-.13,2.22-.31,4.38-.53,6.46a5.54,5.54,0,0,1-.95,3,1.45,1.45,0,0,1-1.6.49,2,2,0,0,1-1.1-1.17,8.84,8.84,0,0,1-.49-2.84c-.05-.91-.08-1.8-.06-2.66a34.2,34.2,0,0,1,.39-4.76,32.91,32.91,0,0,1,1.75-6.67c.29-.77.54-1.35.72-1.73A2.83,2.83,0,0,1,228.32,200.41Z" style="fill:#455a64"></path><path d="M231.58,250.72a7.89,7.89,0,0,1-.89,2,40,40,0,0,1-2.79,4.45,39.12,39.12,0,0,1-3.35,4,7.58,7.58,0,0,1-1.61,1.46c-.12-.11,2.16-2.5,4.54-5.81S231.44,250.64,231.58,250.72Z" style="fill:#455a64"></path><path d="M225.23,279a7.15,7.15,0,0,1,0-2.2,22.2,22.2,0,0,1,1.09-5.2,21.33,21.33,0,0,1,2.31-4.78,6.92,6.92,0,0,1,1.38-1.72,43.48,43.48,0,0,0-3.2,6.67A47.36,47.36,0,0,0,225.23,279Z" style="fill:#455a64"></path><path d="M226.82,388.76a1.17,1.17,0,0,1,0-.36,7.25,7.25,0,0,1,0-1.07,3.21,3.21,0,0,1,.57-1.63,2.12,2.12,0,0,1,.91-.68,1.45,1.45,0,0,1,1.29.1,1.87,1.87,0,0,1,.71,1.25,10.88,10.88,0,0,1,.13,1.53,23,23,0,0,1-.14,3.45,22.11,22.11,0,0,1-2.5,7.91l-.14.27-.2-.24c-2.58-3.12-3.92-7.66-4-12.47s1.16-9.91,2.61-15c.9-3.22,1.82-6.35,2.37-9.45a61.24,61.24,0,0,0,1-9,64.8,64.8,0,0,0-1.31-15.26,70.58,70.58,0,0,0-2.82-10c-.41-1.16-.77-2-1-2.64l-.26-.68a1,1,0,0,1-.08-.24s.05.07.12.22.19.39.31.66c.27.59.67,1.46,1.11,2.6a64.47,64.47,0,0,1,3,10,63.46,63.46,0,0,1,1.43,15.35,61.1,61.1,0,0,1-1,9.08c-.55,3.12-1.47,6.28-2.37,9.49-1.44,5.11-2.71,10.11-2.62,14.88s1.32,9.16,3.8,12.2l-.35,0A21.92,21.92,0,0,0,230,391.3a22.43,22.43,0,0,0,.19-3.39c0-1,0-2.1-.69-2.59a1.18,1.18,0,0,0-1.08-.1,1.88,1.88,0,0,0-.83.59,3.33,3.33,0,0,0-.6,1.54C226.83,388.26,226.85,388.76,226.82,388.76Z" style="fill:#455a64"></path><path d="M230.45,325a45.76,45.76,0,0,0-2.06-8.21,41.93,41.93,0,0,0-4.07-7.41A8.47,8.47,0,0,1,226,311.3a24.13,24.13,0,0,1,2.9,5.34,24.64,24.64,0,0,1,1.49,5.88A8.72,8.72,0,0,1,230.45,325Z" style="fill:#455a64"></path><path d="M527.81,113.18a63.71,63.71,0,0,0-2.72-6.58,59,59,0,0,0-3.91-5.94,6.92,6.92,0,0,1,1.52,1.47,23.94,23.94,0,0,1,4.74,9A6.7,6.7,0,0,1,527.81,113.18Z" style="fill:#455a64"></path><path d="M521.66,157a4.57,4.57,0,0,1-.15-1.07c-.08-.7-.13-1.71-.14-3a43.72,43.72,0,0,1,1.09-9.67,42.37,42.37,0,0,1,3.23-9.18c.55-1.12,1-2,1.41-2.6a4.13,4.13,0,0,1,.61-.89c.08.05-.68,1.38-1.69,3.64a50.54,50.54,0,0,0-3,9.14,51.26,51.26,0,0,0-1.23,9.56C521.66,155.49,521.75,157,521.66,157Z" style="fill:#455a64"></path><path d="M526.09,200.41a2.74,2.74,0,0,1-.2.62c-.16.4-.38,1-.64,1.75a36.56,36.56,0,0,0-1.57,6.66,35.89,35.89,0,0,0-.33,4.71c0,.85,0,1.73.09,2.63a8.81,8.81,0,0,0,.47,2.67,1.55,1.55,0,0,0,.82.91,1,1,0,0,0,1.07-.35,5.08,5.08,0,0,0,.81-2.77c.22-2.08.4-4.23.52-6.44.26-4.42.28-8.64.14-12.47-.07-1.92-.17-3.74-.3-5.44-.06-.85-.12-1.68-.2-2.45a3.43,3.43,0,0,0-.74-2,1.26,1.26,0,0,0-1.64-.3,3.38,3.38,0,0,0-.87,1.5c-.42,1.06-.79,2-1.09,2.75s-.53,1.29-.71,1.73a4.62,4.62,0,0,1-.28.6,2.37,2.37,0,0,1,.18-.63l.62-1.77,1-2.79a3.64,3.64,0,0,1,1-1.65,1.36,1.36,0,0,1,1.09-.26,2,2,0,0,1,1,.56,3.8,3.8,0,0,1,.88,2.2c.09.8.16,1.61.24,2.47.14,1.7.26,3.53.34,5.45.16,3.85.16,8.08-.1,12.52-.12,2.22-.3,4.38-.53,6.46a5.52,5.52,0,0,1-.94,3,1.46,1.46,0,0,1-1.6.49,2,2,0,0,1-1.11-1.17,8.82,8.82,0,0,1-.48-2.84c-.06-.91-.09-1.8-.07-2.66a34.1,34.1,0,0,1,2.14-11.43c.29-.77.54-1.35.73-1.73A3.27,3.27,0,0,1,526.09,200.41Z" style="fill:#455a64"></path><path d="M529.35,250.72a7.89,7.89,0,0,1-.89,2,38.53,38.53,0,0,1-2.79,4.45,37.88,37.88,0,0,1-3.35,4,7.58,7.58,0,0,1-1.61,1.46c-.11-.11,2.17-2.5,4.54-5.81S529.21,250.64,529.35,250.72Z" style="fill:#455a64"></path><path d="M523,279a6.78,6.78,0,0,1,0-2.2,21.62,21.62,0,0,1,1.08-5.2,20.89,20.89,0,0,1,2.32-4.78,7,7,0,0,1,1.37-1.72,44,44,0,0,0-3.19,6.67A46,46,0,0,0,523,279Z" style="fill:#455a64"></path><path d="M524.59,388.76a1.77,1.77,0,0,1,0-.36,9,9,0,0,1,0-1.07,3.33,3.33,0,0,1,.58-1.63,2.09,2.09,0,0,1,.9-.68,1.45,1.45,0,0,1,1.29.1,1.85,1.85,0,0,1,.72,1.25,12.62,12.62,0,0,1,.13,1.53,21.79,21.79,0,0,1-.15,3.45,22.28,22.28,0,0,1-2.49,7.91l-.15.27-.2-.24c-2.58-3.12-3.92-7.66-4-12.47s1.17-9.91,2.62-15c.9-3.22,1.81-6.35,2.36-9.45a61.29,61.29,0,0,0,1-9,65.34,65.34,0,0,0-1.31-15.26,69,69,0,0,0-2.83-10c-.4-1.16-.77-2-1-2.64l-.26-.68c-.06-.16-.08-.24-.07-.24s0,.07.12.22l.31.66c.27.59.66,1.46,1.1,2.6a64.77,64.77,0,0,1,4.43,25.31,59.85,59.85,0,0,1-1,9.08,97.34,97.34,0,0,1-2.36,9.49c-1.45,5.11-2.72,10.11-2.62,14.88s1.32,9.16,3.8,12.2l-.35,0a22.13,22.13,0,0,0,2.53-7.76,22.43,22.43,0,0,0,.19-3.39c0-1,0-2.1-.69-2.59a1.18,1.18,0,0,0-1.08-.1,1.86,1.86,0,0,0-.84.59,3.2,3.2,0,0,0-.59,1.54C524.61,388.26,524.62,388.76,524.59,388.76Z" style="fill:#455a64"></path><path d="M528.22,325a45.18,45.18,0,0,0-2.05-8.21,42.7,42.7,0,0,0-4.07-7.41,8.78,8.78,0,0,1,1.66,1.89,23.74,23.74,0,0,1,2.89,5.34,24.17,24.17,0,0,1,1.49,5.88A8.29,8.29,0,0,1,528.22,325Z" style="fill:#455a64"></path><path d="M231.27,239.81s0-.25,0-.75,0-1.25,0-2.22c0-2,0-4.86,0-8.64,0-7.57,0-18.66-.06-32.76,0-28.22-.06-68.48-.1-116.7v-.23h.23l153.55,0,135.9,0H521v.23c0,53-.05,97.69-.07,129.13,0,15.71,0,28.12-.06,36.6,0,4.23,0,7.49,0,9.69,0,1.09,0,1.92,0,2.49s0,.84,0,.84,0-.28,0-.84,0-1.4,0-2.49c0-2.2,0-5.46,0-9.69,0-8.48,0-20.89-.07-36.6,0-31.44-.07-76.13-.12-129.13l.23.24-135.9,0L231.27,79l.23-.23c0,48.22-.08,88.48-.1,116.7,0,14.1-.05,25.19-.06,32.76,0,3.78,0,6.68,0,8.64,0,1,0,1.71,0,2.22S231.27,239.81,231.27,239.81Z" style="fill:#F1F6F9"></path><path d="M528.44,420.33a36.08,36.08,0,0,1-4-4.72,36.46,36.46,0,0,1-3.58-5,36.59,36.59,0,0,1,4,4.72A37.48,37.48,0,0,1,528.44,420.33Z" style="fill:#455a64"></path><path d="M230.51,410.36a36.18,36.18,0,0,1-3.72,5,36.4,36.4,0,0,1-4.14,4.67,75,75,0,0,1,7.86-9.67Z" style="fill:#455a64"></path><path d="M223.41,69.24a35.48,35.48,0,0,1,4,4.56,35.62,35.62,0,0,1,3.63,4.89,36.39,36.39,0,0,1-4-4.56A35.62,35.62,0,0,1,223.41,69.24Z" style="fill:#455a64"></path><path d="M528.67,69.84a33.48,33.48,0,0,1-3.77,4.59,34.08,34.08,0,0,1-4.16,4.24,34.41,34.41,0,0,1,3.77-4.59A34,34,0,0,1,528.67,69.84Z" style="fill:#455a64"></path><rect x="528.92" y="77.72" width="131.53" height="331.62" style="fill:#455a64"></rect><rect x="536.2" y="88.18" width="114.11" height="151.63" style="fill:#fff"></rect><path d="M650.8,240.31H535.69V87.68H650.8Zm-114.11-1H649.8V88.68H536.69Z" style="fill:#263238"></path><path d="M627.54,111.87c.12.08-14.09,21.46-31.72,47.76s-32.05,47.56-32.16,47.48,14.08-21.46,31.72-47.77S627.42,111.79,627.54,111.87Z" style="fill:#263238"></path><path d="M598.59,142.66c.12.08-4.66,7.59-10.68,16.78s-11,16.58-11.1,16.5,4.65-7.59,10.67-16.78S598.47,142.58,598.59,142.66Z" style="fill:#263238"></path><rect x="536.2" y="249.17" width="114.11" height="151.63" style="fill:#fff"></rect><path d="M650.8,401.3H535.69V248.67H650.8Zm-114.11-1H649.8V249.67H536.69Z" style="fill:#263238"></path><path d="M627.54,272.86c.12.08-14.09,21.47-31.72,47.76s-32.05,47.56-32.16,47.48,14.08-21.46,31.72-47.77S627.42,272.78,627.54,272.86Z" style="fill:#263238"></path><path d="M598.59,303.65c.12.08-4.66,7.59-10.68,16.78s-11,16.58-11.1,16.5,4.65-7.59,10.67-16.78S598.47,303.57,598.59,303.65Z" style="fill:#263238"></path><path d="M660.45,77.91a8.52,8.52,0,0,1-1.32,1.76,46.52,46.52,0,0,1-3.71,3.82,45.76,45.76,0,0,1-4.11,3.38A8.71,8.71,0,0,1,649.45,88c-.09-.13,2.59-2.13,5.62-4.93S660.33,77.81,660.45,77.91Z" style="fill:#263238"></path><path d="M529,77.62c.15-.06,1.24,2.64,3.36,5.5s4.33,4.73,4.23,4.86a5.74,5.74,0,0,1-1.55-1.13,21.8,21.8,0,0,1-3.1-3.42,22.22,22.22,0,0,1-2.33-4A5.82,5.82,0,0,1,529,77.62Z" style="fill:#263238"></path><path d="M536.29,400.5c.1.11-1.82,2.07-4,4.61s-3.9,4.7-4,4.61a24.71,24.71,0,0,1,3.63-5A24.18,24.18,0,0,1,536.29,400.5Z" style="fill:#263238"></path><path d="M660.3,408.36a40,40,0,0,1-5.36-3.64,40.41,40.41,0,0,1-5.06-4.05,80.78,80.78,0,0,1,10.42,7.69Z" style="fill:#263238"></path></g></svg>